<svg width="70" height="21" viewBox="0 0 70 21" fill="none" xmlns="http://www.w3.org/2000/svg">
<path d="M19.0649 14.136V13.7051H24.1129C24.1399 15.3468 24.9457 16.4241 26.2071 16.4241C26.4565 16.4251 26.7037 16.377 26.9345 16.2824C27.1653 16.1879 27.3752 16.0488 27.5523 15.8732C27.7293 15.6975 27.8701 15.4887 27.9664 15.2587C28.0628 15.0286 28.1129 14.7819 28.1139 14.5325V14.5131C28.1139 13.5586 27.3189 12.9252 26.2933 12.4135L27.4654 8.38672L27.6808 8.48152C32.0577 10.3667 33.1586 11.9546 33.1586 14.5669C33.1619 18.4213 30.5301 20.6836 26.2341 20.6836C21.9121 20.6836 19.0649 18.4213 19.0649 14.136Z" fill="black"/>
<path d="M59 20.3007L64.7999 0.376953H69.9998L63.3413 20.3007H59Z" fill="black"/>
<path d="M58.1067 20.3007L51.4751 0.376953H56.6836L60.2816 12.9431L58.139 20.3007H58.1067Z" fill="black"/>
<path d="M45.0832 20.3003L40.492 13.8658H40.3422V20.3003H35.2339V0.371094H40.3401V10.3734H40.4381V10.3874C40.4381 10.3874 42.7714 10.3734 42.9815 10.3486L45.4893 13.5093L47.1979 15.6616L48.2148 16.9446L50.8853 20.3024L45.0832 20.3003Z" fill="black"/>
<path d="M5.90186 20.3016V15.8364H7.35722C10.283 15.8364 12.1101 14.0051 12.1101 10.3715C12.1101 6.81657 10.3111 4.85166 7.38416 4.85166H5.90186V0.378906H6.76366C9.2338 0.378906 11.1944 0.809806 12.5905 1.58974C15.4097 3.20562 17.1818 6.27471 17.1818 10.3403C17.1818 16.9115 13.3155 20.3027 7.11269 20.3027L5.90186 20.3016Z" fill="black"/>
<path d="M5.07817 0.376953H0V20.3007H5.07817V0.376953Z" fill="black"/>
<path d="M43.8699 10.1509C44.9472 9.75982 45.5677 8.89264 45.5677 7.53961C45.5677 5.816 44.275 4.84647 42.3725 4.84647H41.166V0.376953H42.0774C44.1457 0.376953 45.7293 0.646266 46.7763 1.1041C48.9244 2.07363 50.4282 4.41557 50.4282 7.24444C50.4282 10.0733 48.9039 12.4573 46.3659 13.2964L43.8699 10.1509Z" fill="black"/>
<path d="M24.1117 11.4967C20.8627 10.1782 19.3857 8.45457 19.3857 5.87024C19.3857 2.47797 22.6627 0.000289232 26.3136 0.000289232C27.5366 -0.0104139 28.744 0.276087 29.8319 0.83516C31.953 1.93934 32.9731 3.52829 33.0001 6.19341H27.979C27.7635 4.76605 27.1732 4.25436 26.18 4.25436C25.2395 4.25436 24.4348 4.92764 24.4348 5.81638C24.4348 6.80745 25.1889 7.34716 26.7068 8.04845L25.5358 12.0655C25.0639 11.8695 24.5749 11.6842 24.1117 11.4967Z" fill="black"/>
<path d="M19.0649 14.136V13.7051H24.1129C24.1399 15.3468 24.9457 16.4241 26.2071 16.4241C26.4565 16.4251 26.7037 16.377 26.9345 16.2824C27.1653 16.1879 27.3752 16.0488 27.5523 15.8732C27.7293 15.6975 27.8701 15.4887 27.9664 15.2587C28.0628 15.0286 28.1129 14.7819 28.1139 14.5325V14.5131C28.1139 13.5586 27.3189 12.9252 26.2933 12.4135L27.4654 8.38672L27.6808 8.48152C32.0577 10.3667 33.1586 11.9546 33.1586 14.5669C33.1619 18.4213 30.5301 20.6836 26.2341 20.6836C21.9121 20.6836 19.0649 18.4213 19.0649 14.136Z" fill="black"/>
<path d="M59 20.3007L64.7999 0.376953H69.9998L63.3413 20.3007H59Z" fill="black"/>
<path d="M58.1067 20.3007L51.4751 0.376953H56.6836L60.2816 12.9431L58.139 20.3007H58.1067Z" fill="black"/>
<path d="M45.0832 20.3003L40.492 13.8658H40.3422V20.3003H35.2339V0.371094H40.3401V10.3734H40.4381V10.3874C40.4381 10.3874 42.7714 10.3734 42.9815 10.3486L45.4893 13.5093L47.1979 15.6616L48.2148 16.9446L50.8853 20.3024L45.0832 20.3003Z" fill="black"/>
<path d="M5.90186 20.3016V15.8364H7.35722C10.283 15.8364 12.1101 14.0051 12.1101 10.3715C12.1101 6.81657 10.3111 4.85166 7.38416 4.85166H5.90186V0.378906H6.76366C9.2338 0.378906 11.1944 0.809806 12.5905 1.58974C15.4097 3.20562 17.1818 6.27471 17.1818 10.3403C17.1818 16.9115 13.3155 20.3027 7.11269 20.3027L5.90186 20.3016Z" fill="black"/>
<path d="M5.07817 0.376953H0V20.3007H5.07817V0.376953Z" fill="black"/>
<path d="M43.8699 10.1509C44.9472 9.75982 45.5677 8.89264 45.5677 7.53961C45.5677 5.816 44.275 4.84647 42.3725 4.84647H41.166V0.376953H42.0774C44.1457 0.376953 45.7293 0.646266 46.7763 1.1041C48.9244 2.07363 50.4282 4.41557 50.4282 7.24444C50.4282 10.0733 48.9039 12.4573 46.3659 13.2964L43.8699 10.1509Z" fill="black"/>
<path d="M24.1117 11.4967C20.8627 10.1782 19.3857 8.45457 19.3857 5.87024C19.3857 2.47797 22.6627 0.000289232 26.3136 0.000289232C27.5366 -0.0104139 28.744 0.276087 29.8319 0.83516C31.953 1.93934 32.9731 3.52829 33.0001 6.19341H27.979C27.7635 4.76605 27.1732 4.25436 26.18 4.25436C25.2395 4.25436 24.4348 4.92764 24.4348 5.81638C24.4348 6.80745 25.1889 7.34716 26.7068 8.04845L25.5358 12.0655C25.0639 11.8695 24.5749 11.6842 24.1117 11.4967Z" fill="black"/>
</svg>
